<svg xmlns="http://www.w3.org/2000/svg" xmlns:xlink="http://www.w3.org/1999/xlink" width="130.574" height="85.289" viewBox="0 0 130.574 85.289">
  <defs>
    <linearGradient id="linear-gradient" x1="0.854" y1="0.174" x2="0.707" y2="0.295" gradientUnits="objectBoundingBox">
      <stop offset="0" stop-color="#cdcfd1"/>
      <stop offset="0.314" stop-color="#bfc1c3"/>
      <stop offset="1" stop-color="#fff"/>
    </linearGradient>
    <linearGradient id="linear-gradient-2" x1="0.206" y1="0.769" x2="0.311" y2="0.656" xlink:href="#linear-gradient"/>
    <linearGradient id="linear-gradient-3" x1="0.877" y1="0.155" x2="0.69" y2="0.31" xlink:href="#linear-gradient"/>
    <clipPath id="clip-path">
      <path id="Path_9" data-name="Path 9" d="M285.222,215.868a6.584,6.584,0,0,1,.174-9.31l28.32-27.349a2.744,2.744,0,0,0,.078-3.875l-15.235-15.9a2.745,2.745,0,0,0-3.885-.078l-28.31,27.34a6.584,6.584,0,0,0-.174,9.31l19.04,19.87h0Z" transform="translate(-264.346 -158.589)" fill="none"/>
    </clipPath>
    <clipPath id="clip-path-2">
      <path id="Path_11" data-name="Path 11" d="M333.567,270.7l-12.9-13.406h0l.006.006a5.132,5.132,0,0,1-.136,7.256l-17.26,16.613a.927.927,0,0,0-.025,1.31l.341.354a.927.927,0,0,0,1.311.025l11.409-10.977a.927.927,0,0,1,1.311.025l.1.107a.928.928,0,0,1-.025,1.311l-9.37,9a.927.927,0,0,0-.025,1.31h0a.927.927,0,0,0,1.311.025l5.1-4.9a.927.927,0,0,1,1.31.024l.1.107a.926.926,0,0,1-.024,1.31l-10.511,10.125a.927.927,0,0,0-.025,1.31l.215.224a.927.927,0,0,0,1.311.025l12.463-11.993a.926.926,0,0,1,1.31.024l.1.107a.926.926,0,0,1-.024,1.31L306.44,295.3a.927.927,0,0,0-.025,1.31l.348.361a.927.927,0,0,0,1.311.025l7.655-7.373a.927.927,0,0,1,1.31.024l.1.107a.926.926,0,0,1-.024,1.31l-3.575,3.418a.927.927,0,0,0-.025,1.31l.011.012a.927.927,0,0,0,1.311.025l18.59-17.883A5.132,5.132,0,0,0,333.567,270.7Z" transform="translate(-302.989 -257.29)" fill="none"/>
    </clipPath>
  </defs>
  <g id="Group_1720" data-name="Group 1720" transform="translate(-48 -360)">
    <g id="Group_15" data-name="Group 15" transform="translate(48 360)">
      <g id="Group_14" data-name="Group 14" transform="translate(0 0)">
        <g id="Group_13" data-name="Group 13">
          <g id="Group_2" data-name="Group 2" transform="translate(59.719 36.045)">
            <rect id="Rectangle_3" data-name="Rectangle 3" width="4.326" height="2.474" rx="1.237" transform="translate(1.83 3.154)" fill="#313133"/>
            <rect id="Rectangle_4" data-name="Rectangle 4" width="4.326" height="2.474" rx="1.237" transform="translate(6.883 3.154)" fill="#313133"/>
            <path id="Path_1" data-name="Path 1" d="M463.9,244.924a1.237,1.237,0,0,0-1.237,1.237v7.623a3.561,3.561,0,0,1-1.036,2.905,3.7,3.7,0,0,1-3.753.907c-1.949-.353-2.9-1.316-2.9-2.945v-6.7a1.238,1.238,0,0,0-1.237-1.237h0a1.237,1.237,0,0,0-1.237,1.237v6.7c0,1.629-.947,2.592-2.9,2.946a3.654,3.654,0,0,1-3.723-.933,3.569,3.569,0,0,1-1.064-2.88v-7.623a1.237,1.237,0,0,0-1.237-1.237h-.1a1.238,1.238,0,0,0-1.237,1.241l.023,7.987a6.84,6.84,0,0,0,.517,2.8,4.344,4.344,0,0,1-2.357.48,8.659,8.659,0,0,1-3.029-.439,6.6,6.6,0,0,0,.415-2.45,6.253,6.253,0,0,0-1.356-4.034,7.268,7.268,0,0,0-4.392-2.378l-10.112-2.05a1.278,1.278,0,0,0-1.519,1.163h0a1.278,1.278,0,0,0,1.046,1.349l1.758.32a3.658,3.658,0,0,0-.738.5,4.521,4.521,0,0,0-1.189,3.448v2.024a4.559,4.559,0,0,0,.62,2.547h-2.105a5.158,5.158,0,0,1-3.354-.88,3.443,3.443,0,0,1-1.06-2.85v-15.35a1.263,1.263,0,0,0-1.263-1.263h0a1.263,1.263,0,0,0-1.263,1.263V253.7a3.534,3.534,0,0,1-1.036,2.852,4.89,4.89,0,0,1-2.887.867c-.407-.036-.655-.161-.737-.364a5.889,5.889,0,0,1-.255-.969l-1.183-6.7c-.31-1.729-.763-2.8-1.384-3.269a7.3,7.3,0,0,0-4.4-1.063c-2.359,0-3.676.375-4.7,1.112-1.291.927-1.927,2.544-1.891,4.805l.027,3.283a10.058,10.058,0,0,0,.216,2.437,4.063,4.063,0,0,0,.856,1.576,4.314,4.314,0,0,0,1.837,1.287,9.719,9.719,0,0,0,3.086.353h3.264A1.237,1.237,0,0,0,404.734,258h0a1.237,1.237,0,0,0-1.039-.567h-2.922a4.57,4.57,0,0,1-3-.738,3.453,3.453,0,0,1-.782-2.572V251.1a3.423,3.423,0,0,1,1.333-3.129,4.888,4.888,0,0,1,2.918-.654,2.987,2.987,0,0,1,2.181.708,3.934,3.934,0,0,1,.895,2.134l1.288,7.6a2.764,2.764,0,0,0,.647,1.43,2.637,2.637,0,0,0,2.058.72h1l.185-.02v-.011a7.232,7.232,0,0,0,4.338-1.552l.3-.323a3.6,3.6,0,0,0,.359.336,6.824,6.824,0,0,0,4.2,1.539l.912.031h12.415a6.758,6.758,0,0,0,3.815-.988,6.269,6.269,0,0,0,.8.424,9.779,9.779,0,0,0,2.957.535l.844.026.208,0-.03-.014a7.424,7.424,0,0,0,2.84-.548,4.2,4.2,0,0,0,.964-.478,8.137,8.137,0,0,0,3.937,1.04,6.635,6.635,0,0,0,3.43-.646,4.582,4.582,0,0,0,1.953-1.653,4.785,4.785,0,0,0,1.977,1.653,6.411,6.411,0,0,0,3,.671c.268,0,.793-.009,1.071-.026A5.721,5.721,0,0,0,463.6,258.5a5.469,5.469,0,0,0,1.641-4.346l.023-7.987a1.237,1.237,0,0,0-1.237-1.241Zm-34.766,8.045v1.6a2.665,2.665,0,0,1-.727,2.07,2.3,2.3,0,0,1-1.872.636,3.737,3.737,0,0,1-2.6-.66,2.685,2.685,0,0,1-.7-2.046v-1.6a2.986,2.986,0,0,1,.705-2.179,3.5,3.5,0,0,1,2.447-.684,2.518,2.518,0,0,1,2.025.662A2.856,2.856,0,0,1,429.132,252.969Zm1.922,1.735v-1.84a5.062,5.062,0,0,0-.577-2.557l1.281.217a4.8,4.8,0,0,1,2.812,1.362,3.458,3.458,0,0,1,.923,2.423,2.925,2.925,0,0,1-.911,2.254,4.127,4.127,0,0,1-2.794.872h-1.361A5.314,5.314,0,0,0,431.054,254.7Z" transform="translate(-394.408 -237.092)" fill="#313133"/>
          </g>
          <g id="Group_12" data-name="Group 12">
            <g id="Group_8" data-name="Group 8">
              <path id="Path_2" data-name="Path 2" d="M333.567,270.7l-12.9-13.406h0l.006.006a5.132,5.132,0,0,1-.136,7.256l-17.26,16.613a.927.927,0,0,0-.025,1.31l.341.354a.927.927,0,0,0,1.311.025l11.409-10.977a.927.927,0,0,1,1.311.025l.1.107a.928.928,0,0,1-.025,1.311l-9.37,9a.927.927,0,0,0-.025,1.31h0a.927.927,0,0,0,1.311.025l5.1-4.9a.927.927,0,0,1,1.31.024l.1.107a.926.926,0,0,1-.024,1.31l-10.511,10.125a.927.927,0,0,0-.025,1.31l.215.224a.927.927,0,0,0,1.311.025l12.463-11.993a.926.926,0,0,1,1.31.024l.1.107a.926.926,0,0,1-.024,1.31L306.44,295.3a.927.927,0,0,0-.025,1.31l.348.361a.927.927,0,0,0,1.311.025l7.655-7.373a.927.927,0,0,1,1.31.024l.1.107a.926.926,0,0,1-.024,1.31l-3.575,3.418a.927.927,0,0,0-.025,1.31l.011.012a.927.927,0,0,0,1.311.025l18.59-17.883A5.132,5.132,0,0,0,333.567,270.7Z" transform="translate(-285.246 -211.971)" fill="url(#linear-gradient)" style="mix-blend-mode: multiply;isolation: isolate"/>
              <g id="Group_7" data-name="Group 7">
                <path id="Path_3" data-name="Path 3" d="M284.424,241.824,296.088,254l5.526,5.738,8.927-8.533,11.2,2.37-23.6-24.5Z" transform="translate(-275.205 -196.708)" fill="#175529"/>
                <path id="Path_4" data-name="Path 4" d="M285.222,215.868a6.584,6.584,0,0,1,.174-9.31l28.32-27.349a2.744,2.744,0,0,0,.078-3.875l-15.235-15.9a2.745,2.745,0,0,0-3.885-.078l-28.31,27.34a6.584,6.584,0,0,0-.174,9.31l19.04,19.87h0Z" transform="translate(-264.346 -158.589)" fill="#a97c14"/>
                <path id="Path_5" data-name="Path 5" d="M285.222,215.868a6.584,6.584,0,0,1,.174-9.31l28.32-27.349a2.744,2.744,0,0,0,.078-3.875l-15.235-15.9a2.745,2.745,0,0,0-3.885-.078l-28.31,27.34a6.584,6.584,0,0,0-.174,9.31l19.04,19.87h0Z" transform="translate(-264.346 -158.589)" fill="url(#linear-gradient-2)" style="mix-blend-mode: multiply;isolation: isolate"/>
                <path id="Path_6" data-name="Path 6" d="M333.567,270.7l-12.9-13.406h0l.006.006a5.132,5.132,0,0,1-.136,7.256l-17.26,16.613a.927.927,0,0,0-.025,1.31l.341.354a.927.927,0,0,0,1.311.025l11.409-10.977a.927.927,0,0,1,1.311.025l.1.107a.928.928,0,0,1-.025,1.311l-9.37,9a.927.927,0,0,0-.025,1.31h0a.927.927,0,0,0,1.311.025l5.1-4.9a.927.927,0,0,1,1.31.024l.1.107a.926.926,0,0,1-.024,1.31l-10.511,10.125a.927.927,0,0,0-.025,1.31l.215.224a.927.927,0,0,0,1.311.025l12.463-11.993a.926.926,0,0,1,1.31.024l.1.107a.926.926,0,0,1-.024,1.31L306.44,295.3a.927.927,0,0,0-.025,1.31l.348.361a.927.927,0,0,0,1.311.025l7.655-7.373a.927.927,0,0,1,1.31.024l.1.107a.926.926,0,0,1-.024,1.31l-3.575,3.418a.927.927,0,0,0-.025,1.31l.011.012a.927.927,0,0,0,1.311.025l18.59-17.883A5.132,5.132,0,0,0,333.567,270.7Z" transform="translate(-285.246 -211.971)" fill="#a97c14"/>
                <path id="Path_7" data-name="Path 7" d="M333.567,270.7l-12.9-13.406h0l.006.006a5.132,5.132,0,0,1-.136,7.256l-17.26,16.613a.927.927,0,0,0-.025,1.31l.341.354a.927.927,0,0,0,1.311.025l11.409-10.977a.927.927,0,0,1,1.311.025l.1.107a.928.928,0,0,1-.025,1.311l-9.37,9a.927.927,0,0,0-.025,1.31h0a.927.927,0,0,0,1.311.025l5.1-4.9a.927.927,0,0,1,1.31.024l.1.107a.926.926,0,0,1-.024,1.31l-10.511,10.125a.927.927,0,0,0-.025,1.31l.215.224a.927.927,0,0,0,1.311.025l12.463-11.993a.926.926,0,0,1,1.31.024l.1.107a.926.926,0,0,1-.024,1.31L306.44,295.3a.927.927,0,0,0-.025,1.31l.348.361a.927.927,0,0,0,1.311.025l7.655-7.373a.927.927,0,0,1,1.31.024l.1.107a.926.926,0,0,1-.024,1.31l-3.575,3.418a.927.927,0,0,0-.025,1.31l.011.012a.927.927,0,0,0,1.311.025l18.59-17.883A5.132,5.132,0,0,0,333.567,270.7Z" transform="translate(-285.246 -211.971)" fill="url(#linear-gradient-3)" style="mix-blend-mode: multiply;isolation: isolate"/>
                <g id="Group_4" data-name="Group 4">
                  <g id="Group_3" data-name="Group 3" clip-path="url(#clip-path)">
                    <path id="Path_8" data-name="Path 8" d="M285.119,218.393c-2.523-2.619-1.508-6.962,1.111-9.485l27.45-26.543a1.6,1.6,0,0,0,.041-2.255l-13.606-13.255a1.6,1.6,0,0,0-2.262-.041l-27.445,26.538c-2.619,2.523-.155,9.027,2.367,11.646l12.876,14.332-.859-1.511Z" transform="translate(-267.019 -162.795)" fill="none" stroke="#175529" stroke-width="1.087"/>
                  </g>
                </g>
                <g id="Group_6" data-name="Group 6" transform="translate(17.743 45.319)">
                  <g id="Group_5" data-name="Group 5" clip-path="url(#clip-path-2)">
                    <path id="Path_10" data-name="Path 10" d="M335.364,290.519l14.024-13.49a5.132,5.132,0,0,0,.135-7.256l-8.262-9.436h0l-.5.64a5.132,5.132,0,0,1-.136,7.256l-4.892,4.581" transform="translate(-320.499 -258.938)" fill="none" stroke="#175529" stroke-linecap="round" stroke-width="1.087"/>
                  </g>
                </g>
              </g>
            </g>
            <g id="Group_9" data-name="Group 9" transform="translate(48.336 5.351)">
              <path id="Path_12" data-name="Path 12" d="M371.437,170.242v.359h-.694v1.811h-.431V170.6h-.694v-.359Zm2.346,2.17-.079-1.276c-.008-.168-.008-.375-.016-.607h-.024c-.056.191-.12.447-.184.646l-.391,1.2h-.447l-.391-1.237c-.04-.168-.1-.423-.151-.614h-.024c0,.2-.008.407-.016.607l-.08,1.276h-.415l.16-2.17h.646l.375,1.061c.048.168.088.327.144.551h.008c.056-.2.1-.383.152-.543l.375-1.069h.623l.167,2.17Z" transform="translate(-369.618 -170.242)" fill="#175529"/>
            </g>
            <g id="Group_11" data-name="Group 11" transform="translate(13.298 14.703)">
              <circle id="Ellipse_7" data-name="Ellipse 7" cx="9.489" cy="9.489" r="9.489" transform="translate(1.541 1.541)" fill="#175529"/>
              <circle id="Ellipse_8" data-name="Ellipse 8" cx="11.03" cy="11.03" r="11.03" fill="none" stroke="#175529" stroke-width="1.086"/>
              <g id="Group_10" data-name="Group 10" transform="translate(5.279 5.236)">
                <path id="Path_13" data-name="Path 13" d="M311.085,214.245q-.2.025-.212-.163l-.175-1.5q-.012-.187.163-.187a4.91,4.91,0,0,0,1.11-.262,3.794,3.794,0,0,0,1.161-.661l-2.558-2.558a4.088,4.088,0,0,1-2.483.873,3.114,3.114,0,0,1-2.2-.986,3.756,3.756,0,0,1-.792-1.129,3.37,3.37,0,0,1-.293-1.242,3.458,3.458,0,0,1,.187-1.26,3.755,3.755,0,0,1,.662-1.173l-.649-.649a.156.156,0,0,1,0-.25l.487-.487a.156.156,0,0,1,.25,0l.649.649a5.8,5.8,0,0,1,1.254-.8,6.024,6.024,0,0,1,1.316-.443.172.172,0,0,1,.2.15l.275,1.423a.172.172,0,0,1-.15.2,4.473,4.473,0,0,0-.855.281,4.2,4.2,0,0,0-.78.456l2.434,2.433a4.116,4.116,0,0,1,2.527-.9,3.187,3.187,0,0,1,2.178,1.017,3.61,3.61,0,0,1,1.142,2.365,3.74,3.74,0,0,1-.843,2.527l.662.661a.156.156,0,0,1,0,.25l-.487.487a.156.156,0,0,1-.25,0l-.636-.636a5.6,5.6,0,0,1-1.579,1.054A5.938,5.938,0,0,1,311.085,214.245Zm-4.168-8.986a1.588,1.588,0,0,0-.275,1.073,1.666,1.666,0,0,0,.512,1.011,1.7,1.7,0,0,0,.88.493,1.764,1.764,0,0,0,1.167-.293Zm6.914,5.441a1.65,1.65,0,0,0-.349-2.221,1.57,1.57,0,0,0-.849-.449,1.889,1.889,0,0,0-1.186.287Z" transform="translate(-304.805 -202.013)" fill="#5faf42"/>
              </g>
            </g>
          </g>
        </g>
      </g>
      <path id="Path_14" data-name="Path 14" d="M406.082,309.721l-4.694-.953a3.277,3.277,0,0,1-1.753-.919,3.218,3.218,0,0,1-.5-2.032,5.072,5.072,0,0,1,.142-1.325,2.449,2.449,0,0,1,.352-.784,1.225,1.225,0,0,1,.688-.393,5.054,5.054,0,0,1,1.01-.171c.327-.018.818-.026,1.46-.026,1.8,0,4.408.045,6.181.136h0a.7.7,0,0,0,.8-.623l.069-.748a.7.7,0,0,0-.561-.746l-.1-.018a35.554,35.554,0,0,0-6.5-.576,18.89,18.89,0,0,0-2.805.166,5.28,5.28,0,0,0-1.946.705,2.946,2.946,0,0,0-1.263,1.624,8.771,8.771,0,0,0-.35,2.727,6.5,6.5,0,0,0,.888,3.642,4.79,4.79,0,0,0,3.008,1.846l4.749,1.008a3.4,3.4,0,0,1,1.769.88,3.269,3.269,0,0,1,.485,2.07c0,1.2-.236,1.985-.7,2.328a9.712,9.712,0,0,1-3.753.563c-1.183,0-3.141-.046-5.819-.136h0a.619.619,0,0,0-.685.56l-.085.93a.62.62,0,0,0,.525.669l.041.006a33.81,33.81,0,0,0,5.94.52c2.439,0,4.9-.346,5.891-1.056s1.492-2.171,1.492-4.329a6.488,6.488,0,0,0-.89-3.656A5.079,5.079,0,0,0,406.082,309.721Z" transform="translate(-337.858 -286.366)" fill="#313133"/>
      <path id="Path_15" data-name="Path 15" d="M445.154,317.408a4.338,4.338,0,0,0-1.192-3.4A5.445,5.445,0,0,0,440.371,313a36.34,36.34,0,0,0-6.1.554h0a1.055,1.055,0,0,0-.908,1.177l0,.015a1.056,1.056,0,0,0,1.175.917,48.993,48.993,0,0,1,4.922-.305,4.738,4.738,0,0,1,2.441.471,2.154,2.154,0,0,1,.523,1.657V318.5H436.6a4.234,4.234,0,0,0-2.872.9,3.254,3.254,0,0,0-1.044,2.576v1.47a3.714,3.714,0,0,0,1.165,2.915,4.439,4.439,0,0,0,3.05,1.027,8.791,8.791,0,0,0,3.6-.755,10.172,10.172,0,0,0,1.957-1.276v.671a1.356,1.356,0,1,0,2.712,0V317.4Zm-2.737,5.684a7.669,7.669,0,0,1-2.3,1.407,8.739,8.739,0,0,1-2.751.5,2.222,2.222,0,0,1-1.483-.439,1.862,1.862,0,0,1-.432-1.389V322.3c0-1.136.495-1.666,1.557-1.666h5.414Z" transform="translate(-357.606 -293.104)" fill="#313133"/>
      <path id="Path_16" data-name="Path 16" d="M533.864,317.408a4.338,4.338,0,0,0-1.192-3.4A5.445,5.445,0,0,0,529.08,313a36.341,36.341,0,0,0-6.1.554h0a1.055,1.055,0,0,0-.908,1.177l0,.015a1.056,1.056,0,0,0,1.175.917,48.989,48.989,0,0,1,4.922-.305,4.737,4.737,0,0,1,2.441.471,2.152,2.152,0,0,1,.523,1.657V318.5H525.3a4.235,4.235,0,0,0-2.872.9,3.254,3.254,0,0,0-1.044,2.576v1.47a3.714,3.714,0,0,0,1.165,2.915,4.437,4.437,0,0,0,3.05,1.027,8.791,8.791,0,0,0,3.6-.755,10.206,10.206,0,0,0,1.957-1.276v.671a1.356,1.356,0,1,0,2.712,0V317.4Zm-2.737,5.684a7.668,7.668,0,0,1-2.3,1.407,8.739,8.739,0,0,1-2.751.5,2.223,2.223,0,0,1-1.483-.439,1.862,1.862,0,0,1-.432-1.389V322.3c0-1.136.495-1.666,1.557-1.666h5.414Z" transform="translate(-405.583 -293.104)" fill="#313133"/>
      <path id="Path_17" data-name="Path 17" d="M506.87,319.355a1.218,1.218,0,0,0-1.208-1.218c-.45,0-1.457-.007-1.457-.007-1.118,0-1.638-.512-1.638-1.611V301.974a1.408,1.408,0,0,0-1.283-1.431,1.356,1.356,0,0,0-1.429,1.354v15.139a3.644,3.644,0,0,0,.938,2.662,3.419,3.419,0,0,0,2.541.954c.567,0,1.84-.028,2.441-.085a1.214,1.214,0,0,0,1.094-1.212Z" transform="translate(-393.937 -286.366)" fill="#313133"/>
      <path id="Path_18" data-name="Path 18" d="M474.908,306.014a11.231,11.231,0,0,0-6.04,2.105v-6.209a1.37,1.37,0,0,0-2.739,0V319.3a1.356,1.356,0,1,0,2.713,0v-8.909a22.766,22.766,0,0,1,2.827-1.539,7.573,7.573,0,0,1,2.586-.475,1.665,1.665,0,0,1,1.34.449,2.875,2.875,0,0,1,.38,1.733V319.3a1.356,1.356,0,0,0,1.356,1.356h.055a1.356,1.356,0,0,0,1.356-1.356V309.9C478.741,307.322,477.451,306.014,474.908,306.014Z" transform="translate(-375.696 -286.366)" fill="#313133"/>
    </g>
  </g>
</svg>
