<?xml version="1.0" encoding="UTF-8" standalone="no"?>
<!DOCTYPE svg PUBLIC "-//W3C//DTD SVG 1.1//EN" "http://www.w3.org/Graphics/SVG/1.1/DTD/svg11.dtd">
<svg xmlns="http://www.w3.org/2000/svg" xmlns:xlink="http://www.w3.org/1999/xlink" version="1.1" width="894.791pt" height="429.6044pt" viewBox="0 0 894.791 429.6044">
<g enable-background="new">
<g id="Layer-1" data-name="Layer 1">
<g id="Layer-2" data-name="Corel_OTF">
</g>
<symbol id="font_0_2f">
<path d="M 0 0 L 0 .71500006 L .19500003 .71500006 L .19500003 .16700001 L .437 .16700001 L .437 0 L 0 0 Z "/>
</symbol>
<symbol id="font_0_2c">
<path d="M 0 0 L 0 .71500006 L .19700003 .71500006 L .19700003 0 L 0 0 Z "/>
</symbol>
<symbol id="font_0_29">
<path d="M 0 0 L 0 .71500006 L .438 .71500006 L .438 .558 L .19 .558 L .19 .43400003 L .424 .43400003 L .424 .28100003 L .19 .28100003 L .19 0 L 0 0 Z "/>
</symbol>
<symbol id="font_0_28">
<path d="M 0 0 L 0 .71500006 L .438 .71500006 L .438 .558 L .19 .558 L .19 .43400003 L .424 .43400003 L .424 .28100003 L .19 .28100003 L .19 .16000001 L .438 .16000001 L .438 0 L 0 0 Z "/>
</symbol>
<symbol id="font_0_3">
<path d="M 0 0 Z "/>
</symbol>
<symbol id="font_0_25">
<path d="M .181 .42900003 L .22 .42900003 C .268 .42900003 .301 .43400003 .319 .44500003 C .337 .45600004 .34600003 .47400005 .34600003 .5 C .34600003 .527 .33800004 .546 .321 .55700007 C .30400003 .568 .272 .573 .22300002 .573 L .181 .573 L .181 .42900003 M 0 0 L 0 .71500006 L .19600001 .71500006 C .277 .71500006 .333 .712 .365 .707 C .397 .702 .42500005 .693 .44800005 .68 C .474 .666 .49500004 .646 .508 .62200006 C .5220001 .597 .52900007 .569 .52900007 .536 C .52900007 .49600003 .51900008 .46300004 .498 .439 C .47700004 .41500003 .44400005 .397 .39900003 .38500003 C .45000003 .381 .49000005 .363 .518 .33100004 C .54700008 .3 .561 .257 .561 .20400001 C .561 .16600001 .553 .133 .53700008 .104 C .521 .075 .498 .052 .46800003 .036000004 C .44400005 .023000002 .41300003 .014 .37800003 .008 C .342 .003 .28300003 0 .20200002 0 L 0 0 M .181 .14600002 L .24900002 .14600002 C .296 .14600002 .328 .15200001 .347 .163 C .367 .17500001 .37600003 .194 .37600003 .22100002 C .37600003 .25100003 .367 .272 .35000003 .284 C .33200003 .296 .3 .30200003 .252 .30200003 L .181 .30200003 L .181 .14600002 Z "/>
</symbol>
<symbol id="font_0_38">
<path d="M 0 .734 L .194 .734 L .194 .386 C .194 .335 .19500003 .298 .19800002 .276 C .201 .254 .20500002 .23500002 .21100003 .22 C .21900001 .20200002 .23200003 .18800003 .25000004 .178 C .26900003 .169 .291 .164 .31800003 .164 C .34500004 .164 .367 .169 .38600005 .178 C .404 .18800003 .41700004 .20200002 .425 .22 C .43100003 .23500002 .43600003 .254 .43800006 .276 C .441 .298 .442 .335 .442 .386 L .442 .435 L .442 .734 L .636 .734 L .636 .356 C .636 .278 .631 .22 .622 .18200001 C .612 .14500001 .597 .113000009 .574 .087000008 C .55 .058000003 .516 .036000004 .474 .022000002 C .43100003 .007000001 .37900005 0 .31800003 0 C .25700004 0 .20500002 .007000001 .16300002 .022000002 C .12 .036000004 .087000008 .058000003 .062 .087000008 C .04 .113000009 .023999997 .14500001 .013999999 .18200001 C .0050000029 .22 0 .278 0 .356 L 0 .43 L 0 .734 Z "/>
</symbol>
<symbol id="font_0_36">
<path d="M .088 .25 C .117000009 .21700001 .14500001 .19300002 .17400001 .176 C .20200002 .16 .23 .15200001 .25800003 .15200001 C .284 .15200001 .305 .15900001 .322 .17300001 C .33900003 .187 .347 .20500002 .347 .22600001 C .347 .25 .34 .268 .32500003 .28100003 C .31100003 .294 .278 .307 .22700002 .321 C .157 .34 .108 .36400003 .079 .395 C .049999998 .425 .035000005 .46600003 .035000005 .519 C .035000005 .588 .058 .643 .104 .68600007 C .14900002 .73 .20900002 .75100007 .282 .75100007 C .321 .75100007 .359 .74600008 .39400003 .735 C .42900003 .725 .463 .70900008 .494 .68700006 L .433 .547 C .411 .56600007 .388 .58000007 .365 .59000006 C .342 .59900006 .319 .60400006 .296 .60400006 C .273 .60400006 .254 .59800007 .23900001 .587 C .22400002 .57600006 .21700002 .56200006 .21700002 .544 C .21700002 .526 .22300002 .512 .23600002 .50100007 C .24900003 .49 .274 .48000003 .31100003 .47000004 L .319 .46800003 C .39900003 .446 .451 .423 .476 .397 C .493 .38000003 .50600007 .358 .51500007 .33400003 C .52400007 .30900003 .52800008 .282 .52800008 .252 C .52800008 .176 .503 .115 .453 .069000009 C .404 .023000002 .337 0 .254 0 C .20400001 0 .15900001 .008 .11800001 .025000003 C .077 .042000005 .038000004 .069000009 0 .105000007 L .088 .25 Z "/>
</symbol>
<symbol id="font_0_31">
<path d="M 0 0 L 0 .71500006 L .188 .71500006 L .45800004 .347 C .46400003 .34 .47200004 .32500003 .484 .30200003 C .49600003 .28 .50900009 .25300003 .523 .22100002 C .51900008 .25100003 .5170001 .277 .515 .3 C .513 .324 .51199999 .344 .51199999 .36200003 L .51199999 .71500006 L .699 .71500006 L .699 0 L .51199999 0 L .24200002 .36900003 C .236 .377 .22800002 .39200003 .21600002 .41400004 C .204 .437 .19100002 .46400003 .17700002 .49400003 C .181 .46400003 .18400002 .43800003 .185 .41500003 C .187 .39200003 .188 .37100003 .188 .35300002 L .188 0 L 0 0 Z "/>
</symbol>
<use xlink:href="#font_0_2f" transform="matrix(74.99166,0,0,-74.99166,347.9699,256.1897)" fill="#ffffff"/>
<use xlink:href="#font_0_2c" transform="matrix(74.99166,0,0,-74.99166,388.24043,256.1897)" fill="#ffffff"/>
<use xlink:href="#font_0_29" transform="matrix(74.99166,0,0,-74.99166,414.78749,256.1897)" fill="#ffffff"/>
<use xlink:href="#font_0_28" transform="matrix(74.99166,0,0,-74.99166,455.58296,256.1897)" fill="#ffffff"/>
<use xlink:href="#font_0_3" transform="matrix(74.99166,0,0,-74.99166,492.40385,256.1897)" fill="#ffffff"/>
<use xlink:href="#font_0_25" transform="matrix(74.99166,0,0,-74.99166,521.57559,256.1897)" fill="#ffffff"/>
<use xlink:href="#font_0_38" transform="matrix(74.99166,0,0,-74.99166,572.12,257.61454)" fill="#ffffff"/>
<use xlink:href="#font_0_36" transform="matrix(74.99166,0,0,-74.99166,626.7139,257.61454)" fill="#ffffff"/>
<use xlink:href="#font_0_2c" transform="matrix(74.99166,0,0,-74.99166,674.8586,256.1897)" fill="#ffffff"/>
<use xlink:href="#font_0_31" transform="matrix(74.99166,0,0,-74.99166,701.40567,256.1897)" fill="#ffffff"/>
<use xlink:href="#font_0_28" transform="matrix(74.99166,0,0,-74.99166,765.2985,256.1897)" fill="#ffffff"/>
<use xlink:href="#font_0_36" transform="matrix(74.99166,0,0,-74.99166,803.6193,257.61454)" fill="#ffffff"/>
<use xlink:href="#font_0_36" transform="matrix(74.99166,0,0,-74.99166,847.1895,257.61454)" fill="#ffffff"/>
<g id="Layer-2" data-name="Corel_OTF">
</g>
<symbol id="font_1_3">
<path d="M 0 0 Z "/>
</symbol>
<symbol id="font_1_2c">
<path d="M 0 0 L 0 .71500006 L .116 .71500006 L .116 0 L 0 0 Z "/>
</symbol>
<symbol id="font_1_31">
<path d="M 0 .028 L 0 .771 L .454 .33400003 C .467 .322 .47900004 .30900003 .49199999 .29500003 C .505 .28100003 .518 .26500003 .532 .24700001 L .532 .74300006 L .639 .74300006 L .639 0 L .17600002 .44500003 C .164 .45700003 .15200001 .47000004 .14000002 .483 C .128 .497 .118 .51100006 .10700001 .52500006 L .10700001 .028 L 0 .028 Z "/>
</symbol>
<symbol id="font_1_37">
<path d="M .30600003 .61600008 L .30600003 0 L .19000001 0 L .19000001 .61600008 L 0 .61600008 L 0 .71500006 L .49500004 .71500006 L .49500004 .61600008 L .30600003 .61600008 Z "/>
</symbol>
<symbol id="font_1_28">
<path d="M 0 0 L 0 .71500006 L .39900006 .71500006 L .39900006 .61600008 L .11600001 .61600008 L .11600001 .437 L .39900006 .437 L .39900006 .335 L .11600001 .335 L .11600001 .104 L .39900006 .104 L .39900006 0 L 0 0 Z "/>
</symbol>
<symbol id="font_1_35">
<path d="M .11600001 .41000004 L .13700001 .41000004 C .19900002 .41000004 .24000003 .41700004 .26 .432 C .28000004 .446 .29000003 .47100003 .29000003 .508 C .29000003 .54700008 .27900005 .57500007 .25800003 .591 C .23600002 .60700008 .19600003 .615 .13700001 .615 L .11600001 .615 L .11600001 .41000004 M .10900001 .32000003 L .10900001 0 L 0 0 L 0 .71500006 L .16200002 .71500006 C .21000003 .71500006 .246 .712 .273 .70600005 C .29900003 .70000007 .32100005 .689 .34000004 .675 C .36200006 .65800008 .379 .63500007 .39100004 .60800006 C .403 .58100005 .40900005 .551 .40900005 .518 C .40900005 .46100004 .39500005 .416 .36800004 .384 C .34000004 .351 .29900003 .33200003 .24500002 .32500003 L .491 0 L .36 0 L .12200001 .32000003 L .10900001 .32000003 Z "/>
</symbol>
<symbol id="font_1_24">
<path d="M .24800001 .28100003 L .44700004 .28100003 L .374 .44400005 C .37 .45400004 .365 .46600003 .361 .48000003 C .356 .49300004 .352 .508 .347 .52500006 C .343 .509 .339 .49500004 .33500005 .48100005 C .33000005 .46800003 .32600004 .455 .32100005 .44400005 L .24800001 .28100003 M .569 0 L .48800005 .18400002 L .20500002 .18400002 L .12200001 0 L 0 0 L .34600003 .74300006 L .69200006 0 L .569 0 Z "/>
</symbol>
<symbol id="font_1_32">
<path d="M .643 .375 C .643 .411 .63600006 .446 .623 .47800002 C .61 .51100006 .591 .54 .56600007 .565 C .54200008 .59000006 .514 .609 .48300005 .623 C .45100004 .63600006 .41700004 .643 .38200004 .643 C .34700004 .643 .314 .63600006 .282 .623 C .25000004 .61 .222 .59000006 .19700001 .565 C .17300001 .54 .15400002 .51100006 .141 .479 C .128 .446 .12100001 .412 .12100001 .375 C .12100001 .33900003 .128 .305 .141 .273 C .15400002 .24000001 .17300001 .21200001 .19700001 .18600002 C .222 .16100002 .25000004 .141 .282 .128 C .31300003 .115 .34700004 .108 .38200004 .108 C .41700004 .108 .45000006 .115 .48200006 .128 C .513 .141 .541 .16100002 .56600007 .18600002 C .591 .21200001 .61 .24000001 .623 .273 C .63600006 .305 .643 .33900003 .643 .375 M .76400008 .375 C .76400008 .324 .75500008 .276 .73600009 .231 C .716 .18600002 .689 .14500001 .652 .11000001 C .61600008 .074 .574 .047000003 .52800008 .028 C .48200006 .009000001 .43300004 0 .38200004 0 C .33100004 0 .282 .009000001 .23500002 .029000003 C .18800001 .048 .14700002 .075 .111 .11000001 C .075 .14500001 .047000003 .18600002 .028 .231 C .010000002 .275 0 .324 0 .375 C 0 .426 .010000002 .474 .028 .52000007 C .047000003 .565 .075 .605 .111 .64100006 C .14800002 .67700007 .18900001 .70400008 .23500002 .722 C .282 .74100008 .33100004 .75 .38200004 .75 C .43400003 .75 .48200006 .74100008 .52900007 .722 C .57500007 .70400008 .61600008 .67700007 .652 .64100006 C .689 .605 .716 .564 .73600009 .519 C .75500008 .47300003 .76400008 .426 .76400008 .375 Z "/>
</symbol>
<symbol id="font_1_2f">
<path d="M 0 0 L 0 .71500006 L .11600001 .71500006 L .11600001 .104 L .37600006 .104 L .37600006 0 L 0 0 Z "/>
</symbol>
<use xlink:href="#font_1_3" transform="matrix(50,0,0,-50,316.35887,309.24165)" fill="#ffffff"/>
<use xlink:href="#font_1_2c" transform="matrix(50,0,0,-50,348.75248,309.24165)" fill="#ffffff"/>
<use xlink:href="#font_1_31" transform="matrix(50,0,0,-50,376.01387,310.64164)" fill="#ffffff"/>
<use xlink:href="#font_1_37" transform="matrix(50,0,0,-50,425.52525,309.24165)" fill="#ffffff"/>
<use xlink:href="#font_1_28" transform="matrix(50,0,0,-50,467.82026,309.24165)" fill="#ffffff"/>
<use xlink:href="#font_1_35" transform="matrix(50,0,0,-50,507.53138,309.24165)" fill="#ffffff"/>
<use xlink:href="#font_1_31" transform="matrix(50,0,0,-50,548.6344,310.64164)" fill="#ffffff"/>
<use xlink:href="#font_1_24" transform="matrix(50,0,0,-50,597.045,309.24165)" fill="#ffffff"/>
<use xlink:href="#font_1_37" transform="matrix(50,0,0,-50,641.62307,309.24165)" fill="#ffffff"/>
<use xlink:href="#font_1_2c" transform="matrix(50,0,0,-50,684.01809,309.24165)" fill="#ffffff"/>
<use xlink:href="#font_1_32" transform="matrix(50,0,0,-50,709.72866,310.19166)" fill="#ffffff"/>
<use xlink:href="#font_1_31" transform="matrix(50,0,0,-50,767.6905,310.64164)" fill="#ffffff"/>
<use xlink:href="#font_1_24" transform="matrix(50,0,0,-50,816.1011,309.24165)" fill="#ffffff"/>
<use xlink:href="#font_1_2f" transform="matrix(50,0,0,-50,867.1621,309.24165)" fill="#ffffff"/>
<path transform="matrix(2.7777777,0,0,-2.7777777,2.7777777,426.82664)" d="M 67.4538 22.4048 L 58.6199 17.2882 C 54.2931 14.7243 56.2337 14.5457 48.083 19.2591 C 41.1914 23.2447 34.4293 27.2585 27.6304 31.2687 C 24.9809 32.8314 8.43 42.8491 7.2306 43.0415 L 7.2238 26.9527 C 9.6678 25.1388 54.6843 .013 54.7676 .0026 C 55.8289 -.1304 64.9655 5.4683 66.6899 6.4378 C 70.8517 8.778 74.6359 10.9414 78.6912 13.2976 L 80.8186 14.5185 C 78.8003 15.6781 76.7871 16.8443 74.7938 18.0541 C 74.2235 18.4003 71.2945 20.1396 67.4538 22.4048 " fill="#ffffff" fill-rule="evenodd"/>
<path transform="matrix(2.7777777,0,0,-2.7777777,2.7777777,426.82664)" d="M 35.8007 104.1197 L 35.6533 73.7765 C 36.1315 72.9454 36.1466 73.0602 37.0579 72.5295 L 42.3737 69.5035 C 51.4882 64.2484 48.7899 64.2997 56.3012 68.7577 C 58.4212 70.0157 61.2941 71.8109 63.3969 72.7534 C 62.9637 73.4323 63.4255 72.9249 62.7406 73.48 C 62.4229 73.7376 62.1649 73.8451 61.7703 74.0667 C 58.3625 75.9835 51.5908 80.3038 49.0589 81.4459 L 49.0433 95.7657 L 54.9595 99.0213 L 88.901 79.5875 L 88.8797 73.2696 L 63.7963 58.4912 C 62.8325 57.7814 63.3835 58.3033 62.9436 57.5989 L 89.3055 42.6294 L 89.3316 35.0759 L 81.3441 30.4498 L 94.9292 22.6165 L 102.4393 26.9263 L 102.4807 50.2829 C 100.6702 51.8159 92.988 55.6858 90.0394 57.7783 C 90.9848 58.8713 100.3609 63.7815 102.471 65.2113 L 102.4812 86.7597 C 102.4812 87.9066 99.8201 88.9671 98.8656 89.5153 L 57.2607 113.4499 C 54.8563 114.8204 55.1015 114.88 52.6949 113.4822 Z " fill="#caa45d" fill-rule="evenodd"/>
<path transform="matrix(2.7777777,0,0,-2.7777777,2.7777777,426.82664)" d="M 7.0384 124.4954 L 6.9537 57.2488 C 8.5927 56.6955 35.8061 40.5924 37.6756 39.4574 C 42.7623 36.3699 47.9798 33.5659 53.0762 30.4347 C 55.5636 28.9066 55.5851 29.6986 60.8295 33.0114 C 62.2959 33.9378 67.4844 37.0032 68.292 37.976 L 20.6952 65.4214 L 20.6303 124.7513 L 13.9487 128.0004 Z " fill="#ffffff" fill-rule="evenodd"/>
<path transform="matrix(2.7777777,0,0,-2.7777777,2.7777777,426.82664)" d="M 13.9805 152.6576 L 27.9609 132.6671 L 27.9609 127.5834 L 13.9805 134.3818 L 0 127.5834 L 0 132.6671 Z " fill="#ffffff" fill-rule="evenodd"/>
<path transform="matrix(2.7777777,0,0,-2.7777777,2.7777777,426.82664)" d="M 122.3745 36.6157 L 320.1248 36.6157 L 320.1248 35.3656 L 122.3745 35.3656 Z " fill="#caa45d" fill-rule="evenodd"/>
<g id="Layer-2" data-name="Corel_OTF">
</g>
<symbol id="font_1_2a">
<path d="M .42700003 .38500003 L .71000006 .38500003 C .71000006 .38000003 .71000006 .373 .711 .365 C .712 .34100003 .712 .326 .712 .31800003 C .712 .21700001 .683 .139 .62600007 .08400001 C .568 .028 .48700006 0 .38200004 0 C .32400004 0 .27100004 .009000001 .22600001 .026 C .18 .043 .13900002 .069000009 .105000007 .104 C .07100001 .139 .044999999 .17900002 .026999999 .22600001 C .009 .272 0 .322 0 .375 C 0 .42900003 .009 .479 .028 .52500006 C .046 .57 .073 .61 .10900001 .64500007 C .14400001 .679 .18500002 .70500007 .23200003 .72300007 C .279 .74100008 .32900004 .75 .38200004 .75 C .43800003 .75 .48900003 .74 .53300008 .71900007 C .578 .699 .61700007 .667 .652 .625 L .56700006 .56100007 C .54300007 .58900007 .51600006 .61 .486 .624 C .45600004 .637 .42200003 .644 .38400004 .644 C .307 .644 .24400002 .619 .19500001 .57 C .14600002 .52000007 .12100001 .455 .12100001 .37600003 C .12100001 .29500003 .14600002 .23000002 .19500001 .18 C .24400002 .12900001 .307 .104 .38500003 .104 C .45200003 .104 .504 .120000008 .54200008 .15 C .58000007 .181 .59900006 .22300002 .59900006 .277 L .59900006 .287 L .42700003 .287 L .42700003 .38500003 Z "/>
</symbol>
<symbol id="font_1_38">
<path d="M 0 .734 L .115 .734 L .115 .3 C .115 .236 .13 .187 .16 .155 C .19000003 .12200001 .23400003 .106000009 .293 .106000009 C .35200004 .106000009 .397 .12200001 .426 .155 C .45600004 .187 .47100003 .236 .47100003 .3 L .47100003 .734 L .587 .734 L .587 .289 C .587 .19300002 .563 .120000008 .51400008 .072000008 C .46500004 .024000003 .39100004 0 .293 0 C .19500003 0 .121 .024000003 .07300001 .072000008 C .024000004 .120000008 0 .192 0 .289 L 0 .734 Z "/>
</symbol>
<symbol id="font_1_33">
<path d="M .11600001 .416 L .14600002 .416 C .21000003 .416 .25300003 .423 .27500005 .437 C .296 .45100004 .30700005 .476 .30700005 .51100006 C .30700005 .549 .296 .57600006 .273 .592 C .25 .60700008 .207 .615 .14600002 .615 L .11600001 .615 L .11600001 .416 M .10900001 .321 L .10900001 0 L 0 0 L 0 .71500006 L .17600002 .71500006 C .228 .71500006 .26600004 .712 .291 .707 C .315 .70100006 .337 .69100007 .35500003 .67800006 C .37800003 .66200008 .39500005 .63900008 .408 .611 C .421 .583 .427 .55200007 .427 .518 C .427 .48400004 .421 .453 .408 .425 C .39500005 .39600004 .37800003 .37300004 .35500003 .35700003 C .337 .344 .315 .335 .291 .32900004 C .26600004 .324 .228 .321 .17600002 .321 L .15300001 .321 L .10900001 .321 Z "/>
</symbol>
<use xlink:href="#font_1_2a" transform="matrix(38.291666,0,0,-38.291666,348.71174,372.77696)" fill="#ffffff"/>
<use xlink:href="#font_1_35" transform="matrix(38.291666,0,0,-38.291666,481.44987,372.0494)" fill="#ffffff"/>
<use xlink:href="#font_1_32" transform="matrix(38.291666,0,0,-38.291666,602.50369,372.77696)" fill="#ffffff"/>
<use xlink:href="#font_1_38" transform="matrix(38.291666,0,0,-38.291666,737.5402,372.77696)" fill="#ffffff"/>
<use xlink:href="#font_1_33" transform="matrix(38.291666,0,0,-38.291666,866.94729,372.0494)" fill="#ffffff"/>
</g>
</g>
</svg>
